<mxfile host="app.diagrams.net" modified="2024-07-24T00:37:58.019Z" agent="Mozilla/5.0 (Windows NT 10.0; Win64; x64) AppleWebKit/537.36 (KHTML, like Gecko) Chrome/126.0.0.0 Safari/537.36" version="24.7.3" etag="mcyiPC4CM47sf1Rj9tPF" type="github">
  <diagram name="第 1 页" id="78033s9l0AK3vR_pznim">
    <mxGraphModel>
      <root>
        <mxCell id="0" />
        <mxCell id="1" parent="0" />
      </root>
    </mxGraphModel>
  </diagram>
</mxfile>
